<svg width="128" height="129" viewBox="0 0 128 129" fill="none" xmlns="http://www.w3.org/2000/svg">
<path d="M103.2 54.4665C99.5733 36.0665 83.4133 22.2532 64 22.2532C48.5867 22.2532 35.2 30.9998 28.5333 43.7998C12.48 45.5065 0 59.1065 0 75.5865C0 93.2398 14.3467 107.587 32 107.587H101.333C116.053 107.587 128 95.6398 128 80.9198C128 66.8398 117.067 55.4265 103.2 54.4665ZM101.333 96.9198H32C20.2133 96.9198 10.6667 87.3732 10.6667 75.5865C10.6667 64.6532 18.8267 55.5332 29.6533 54.4132L35.36 53.8265L38.0267 48.7598C43.0933 38.9998 53.0133 32.9198 64 32.9198C77.9733 32.9198 90.0267 42.8398 92.7467 56.5465L94.3467 64.5465L102.507 65.1332C110.827 65.6665 117.333 72.6532 117.333 80.9198C117.333 89.7198 110.133 96.9198 101.333 96.9198ZM42.6667 70.2532H56.2667V86.2532H71.7333V70.2532H85.3333L64 48.9198L42.6667 70.2532Z" fill="#7E22CE"/>
</svg>
