<svg width="54" height="54" viewBox="0 0 54 54" fill="none" xmlns="http://www.w3.org/2000/svg">
<path fill-rule="evenodd" clip-rule="evenodd" d="M34.4475 47.3175C34.2225 48.8475 32.8275 50.0625 31.1625 50.0625H22.8375C21.1725 50.0625 19.7775 48.8475 19.575 47.205L18.9675 42.9525C18.36 42.6375 17.775 42.3 17.19 41.9175L13.14 43.5375C11.565 44.1225 9.83254 43.47 9.06754 42.075L4.95004 34.9425C4.16254 33.4575 4.50004 31.7025 5.76004 30.7125L9.20254 28.035C9.18004 27.6975 9.15754 27.36 9.15754 27C9.15754 26.6625 9.18004 26.3025 9.20254 25.965L5.78254 23.2875C4.45504 22.275 4.11754 20.4525 4.95004 19.0575L9.11254 11.88C9.87754 10.485 11.61 9.85496 13.14 10.4625L17.2125 12.105C17.7975 11.7225 18.3825 11.385 18.9675 11.07L19.575 6.77246C19.7775 5.19746 21.1725 3.95996 22.815 3.95996H31.14C32.805 3.95996 34.2 5.17496 34.4025 6.81746L35.01 11.07C35.6175 11.385 36.2025 11.7225 36.7875 12.105L40.8375 10.485C42.435 9.89996 44.1675 10.5525 44.9325 11.9475L49.0725 19.1025C49.8825 20.5875 49.5225 22.3425 48.2625 23.3325L44.8425 26.01C44.865 26.3475 44.8875 26.685 44.8875 27.045C44.8875 27.405 44.865 27.7425 44.8425 28.08L48.2625 30.7575C49.5225 31.77 49.8825 33.525 49.095 34.9425L44.91 42.1875C44.145 43.5825 42.4125 44.2125 40.86 43.605L36.81 41.985C36.225 42.3675 35.64 42.705 35.055 43.02L34.4475 47.3175ZM23.895 45.5625H30.105L30.9375 39.825L32.13 39.33C33.12 38.925 34.11 38.34 35.145 37.575L36.1575 36.81L41.5125 38.97L44.6175 33.57L40.05 30.015L40.2075 28.755L40.2145 28.6944C40.2796 28.1311 40.3425 27.5865 40.3425 27C40.3425 26.3925 40.275 25.8075 40.2075 25.245L40.05 23.985L44.6175 20.43L41.49 15.03L36.1125 17.19L35.1 16.4025C34.155 15.6825 33.1425 15.0975 32.1075 14.67L30.9375 14.175L30.105 8.43746H23.895L23.0625 14.175L21.87 14.6475C20.88 15.075 19.89 15.6375 18.855 16.425L17.8425 17.1675L12.4875 15.03L9.36004 20.4075L13.9275 23.9625L13.77 25.2225C13.7025 25.8075 13.635 26.415 13.635 27C13.635 27.585 13.68 28.1925 13.77 28.755L13.9275 30.015L9.36004 33.57L12.465 38.97L17.8425 36.81L18.855 37.5975C19.8225 38.34 20.79 38.9025 21.8475 39.33L23.04 39.825L23.895 45.5625ZM34.875 27C34.875 31.3492 31.3493 34.875 27 34.875C22.6508 34.875 19.125 31.3492 19.125 27C19.125 22.6507 22.6508 19.125 27 19.125C31.3493 19.125 34.875 22.6507 34.875 27Z" fill="#3C3C3C"/>
</svg>
