<svg width="64" height="64" viewBox="0 0 64 64" fill="none" xmlns="http://www.w3.org/2000/svg">
<path d="M32.0001 58C34.9334 58 37.3334 55.6 37.3334 52.6667H26.6667C26.6667 55.6 29.0667 58 32.0001 58ZM48.0001 42V28.6667C48.0001 20.48 43.6534 13.6267 36.0001 11.8133V10C36.0001 7.78667 34.2134 6 32.0001 6C29.7867 6 28.0001 7.78667 28.0001 10V11.8133C20.3734 13.6267 16.0001 20.4533 16.0001 28.6667V42L10.6667 47.3333V50H53.3334V47.3333L48.0001 42ZM42.6667 44.6667H21.3334V28.6667C21.3334 22.0533 25.3601 16.6667 32.0001 16.6667C38.6401 16.6667 42.6667 22.0533 42.6667 28.6667V44.6667Z" fill="#3C3C3C"/>
</svg>
